HIERARCHY
ROOT lpalm
{
OFFSET	0.000000	0.000000	0.000000
CHANNELS	6	Xposition	Yposition	Zposition	Zrotation	Xrotation	Yrotation
JOINT lthumbA
{
OFFSET	-6.570000	-2.200000	3.500000
CHANNELS	3	Zrotation	Xrotation	Yrotation
JOINT lthumbB
{
OFFSET	0.000000	0.000000	7.000000
CHANNELS	3	Zrotation	Xrotation	Yrotation
JOINT lthumbC
{
OFFSET	0.000000	0.000000	3.800000
CHANNELS	3	Zrotation	Xrotation	Yrotation
End Site
{
OFFSET	0.000000	0.000000	3.000000
}
}
}
}
JOINT lindexA
{
OFFSET	-2.730000	0.000000	10.400000
CHANNELS	3	Zrotation	Xrotation	Yrotation
JOINT lindexB
{
OFFSET	0.000000	0.000000	4.600000
CHANNELS	3	Zrotation	Xrotation	Yrotation
JOINT lindexC
{
OFFSET	0.000000	0.000000	3.000000
CHANNELS	3	Zrotation	Xrotation	Yrotation
End Site
{
OFFSET	0.000000	0.000000	2.600000
}
}
}
}
JOINT lmiddleA
{
OFFSET	-0.610000	0.000000	10.000000
CHANNELS	3	Zrotation	Xrotation	Yrotation
JOINT lmiddleB
{
OFFSET	0.000000	0.000000	5.100000
CHANNELS	3	Zrotation	Xrotation	Yrotation
JOINT lmiddleC
{
OFFSET	0.000000	0.000000	3.100000
CHANNELS	3	Zrotation	Xrotation	Yrotation
End Site
{
OFFSET	0.000000	0.000000	2.800000
}
}
}
}
JOINT lringA
{
OFFSET	1.880000	0.000000	9.700000
CHANNELS	3	Zrotation	Xrotation	Yrotation
JOINT lringB
{
OFFSET	0.000000	0.000000	4.800000
CHANNELS	3	Zrotation	Xrotation	Yrotation
JOINT lringC
{
OFFSET	0.000000	0.000000	3.000000
CHANNELS	3	Zrotation	Xrotation	Yrotation
End Site
{
OFFSET	0.000000	0.000000	2.700000
}
}
}
}
JOINT llittleA
{
OFFSET	3.540000	0.000000	8.600000
CHANNELS	3	Zrotation	Xrotation	Yrotation
JOINT llittleB
{
OFFSET	0.000000	0.000000	3.800000
CHANNELS	3	Zrotation	Xrotation	Yrotation
JOINT llittleC
{
OFFSET	0.000000	0.000000	2.300000
CHANNELS	3	Zrotation	Xrotation	Yrotation
End Site
{
OFFSET	0.000000	0.000000	2.400000
}
}
}
}
}
MOTION
Frames: 42
Frame Time: 0.023541
0 0 0 -1.32 31.61 2.14 11.83 -1.57 -48.55 -15 0 0 0 0 7.97 0 -61.91 -10.38 0 2.54 0 0 2.81 0 0 -37.67 5.1 0 7.54 0 0 2.36 0 0 -17.74 16.09 0 11.86 0 0 2.05 0 0 7.34 3.2 0 19.08 0 0 0 0
0 0 0 -2.44 28.5 4.49 6.49 1.46 -24.02 -15 0 0 0 0 11.56 0 -16.69 -11.49 0 9.38 0 0 0 0 0 -4.05 2.65 0 14.46 0 0 1.88 0 0 5.89 7.43 0 20 0 0 0.41 0 0 13.72 2.26 0 21.38 0 0 0 0
0 0 0 -0.01 0.93 0.8 -21.49 -3.15 -57.15 -15 0 0 0 0 5.12 0 -46.42 1.86 0 2.25 0 0 2.52 0 0 -35.82 8.73 0 2.52 0 0 2.77 0 0 -28.02 12.96 0 8.09 0 0 3.7 0 0 2.54 7.42 0 9.77 0 0 1.34 0
0 0 0 0.02 -0.7 1.54 -22.59 -1.44 -61.1 -15 0 0 0 0 5.36 0 -40.35 2.03 0 2.39 0 0 2.19 0 0 -30.58 7.36 0 3.15 0 0 2.61 0 0 -25.73 10.46 0 8.11 0 0 3.65 0 0 -1.05 7.05 0 7.95 0 0 2 0
0 0 0 0.07 -2.55 1.55 -23.98 -0.15 -63.17 -15 0 0 0 0 6.31 0 -36.28 1.58 0 3.55 0 0 1.88 0 0 -25.54 5.99 0 4.08 0 0 2.59 0 0 -22.18 8.92 0 8.55 0 0 3.4 0 0 1.05 4.81 0 8.03 0 0 2.26 0
0 0 0 -2.96 28.36 5.5 -13.5 -10.04 -23.17 -15 0 0 0 0 12.33 0 -25.77 -8.2 0 6.39 0 0 0 0 0 -5.66 2.64 0 14.27 0 0 1.29 0 0 7.28 5.98 0 23.29 0 0 0.23 0 0 13.38 1.99 0 22.71 0 0 0 0
0 0 0 1.72 36.03 -2.36 -4.48 -3.24 -20.07 -15 -0.19 0.72 0 0 17.04 0 -4.87 -11.84 0 10.14 0 0 0 0 0 16.66 3.12 0 28.8 0 0 4.41 0 0 19.51 6.57 0 31.07 0 0 1.91 0 0 15.11 5.96 0 31.18 0 0 0.02 0
0 0 0 0.73 45.93 -0.71 -8.73 -6.92 -23.4 -15 0 0 0 0 17.78 0 -21.62 -14.26 0 6.84 0 0 0 0 0 5.39 2 0 26.44 0 0 3.63 0 0 10.8 5.52 0 29.31 0 0 1.07 0 0 5.39 4.03 0 29.37 0 0 0 0
0 0 0 -0.37 18.06 1.12 -19.74 -13.11 -22.9 -14.56 -3.64 13.74 0 0 13.25 0 -20.71 0.13 0 5.76 0 0 0 0 0 8.79 4.72 0 29.75 0 0 5.81 0 0 16.93 3.43 0 30.53 0 0 2.27 0 0 18.55 0.83 0 26.17 0 0 0.19 0
0 0 0 -1.07 35.11 1.52 13.2 8.42 -14.11 -15 0 0 0 0 19.04 0 39.06 -0.78 0 42.11 0 0 7.51 0 0 52.98 -0.12 0 40.42 0 0 8.57 0 0 46.68 0.08 0 40.72 0 0 5.04 0 0 28.07 1.35 0 38.55 0 0 2.26 0
0 0 0 -0.09 25.91 0.19 13.38 7.15 -23.24 -15 0 0 0 0 17.97 0 52.58 0 0 45.51 0 0 9.37 0 0 67.27 0 0 47.48 0 0 10.47 0 0 61.32 0 0 45.67 0 0 6.94 0 0 41.82 0 0 40.79 0 0 7.75 0
0 0 0 -2.85 16.76 9.5 0.68 -1.6 0.13 -14.54 -3.73 14.08 0 0 13.28 0 -37.58 2.45 0 1.1 0 0 2.24 0 0 -1.42 7 0 19.03 0 0 3.98 0 0 17.81 4.64 0 25.4 0 0 2.15 0 0 24.93 0.91 0 27.47 0 0 0.26 0
0 0 0 -16 62.53 8.58 -21.4 -22.6 11.45 -15 0 0 0 0 23.18 0 -30.15 -18.34 0 2.93 0 0 0 0 0 -6.37 1.33 0 28.03 0 0 5.73 0 0 1.35 6.92 0 29.8 0 0 2.4 0 0 -7.86 3.86 0 26.52 0 0 0 0
0 0 0 -9.39 55.76 6.46 -7.84 -12.71 5.55 -15 -0.31 1.16 0 0 21.92 0 -25.87 -18.68 0 4.48 0 0 0 0 0 -6.19 0.84 0 23.99 0 0 4.9 0 0 1.35 7.3 0 28.82 0 0 2.11 0 0 -3.41 3.9 0 26.69 0 0 0 0
0 0 0 -13.9 60.4 8.08 -20.35 -22.5 10.59 -15 0 0 0 0 22.78 0 -25.05 -17.6 0 4.84 0 0 0 0 0 -7.57 0.48 0 22.76 0 0 4.49 0 0 -0.07 7.22 0 27.83 0 0 2.03 0 0 -6.93 4.55 0 25.91 0 0 0 0
0 0 0 -13.94 60.54 8.06 -20.49 -22.52 10.7 -15 0 0 0 0 22.81 0 -25.1 -17.61 0 4.83 0 0 0 0 0 -7.69 0.48 0 22.74 0 0 4.49 0 0 -0.16 7.22 0 27.83 0 0 2.03 0 0 -7.04 4.58 0 25.89 0 0 0 0
0 0 0 1.03 33.65 -1.55 23.75 21.29 -10.23 -14.69 -3.06 11.52 0 0 19.73 0 3.67 -12.66 0 28.19 0 0 4.48 0 0 25.57 6.9 0 38.02 0 0 8.2 0 0 27.59 6.98 0 37.51 0 0 3.54 0 0 16.86 6.6 0 32.08 0 0 0.95 0
0 0 0 -2.84 50.29 2.36 -0.64 -3.26 -0.43 -15 0 0.01 0 0 21.61 0 -6.39 -14.85 0 14.97 0 0 0 0 0 13.13 3.28 0 31.37 0 0 6.88 0 0 15.35 7.56 0 34.37 0 0 3.37 0 0 4.37 6.41 0 30.46 0 0 0 0
0 0 0 -2.04 26.26 4.14 21.31 24.17 3.45 -14.01 -5.42 20.72 0 0 34.13 0 -23.54 10.83 0 0 0 0 5.44 0 0 39.67 3.83 0 60.24 0 0 14.33 0 0 54.16 -0.91 0 53.24 0 0 9.35 0 0 47.12 -1.65 0 47.02 0 0 13.46 0
0 0 0 -0.86 31.56 1.4 -11.45 -6.04 -43.08 -15 0 0 0 0 7.19 0 55.51 0 0 50.59 0 0 11.23 0 0 69.16 0 0 56.04 0 0 14.09 0 0 64.06 0 0 52.72 0 0 8.56 0 0 56.64 0 0 57.04 0 0 15.14 0
0 0 0 0.45 41.4 -0.51 1.14 0.59 -11.06 -15 0 0 0 0 18.36 0 5.31 -10.75 0 12.52 0 0 0 0 0 26.51 2.77 0 29.65 0 0 5.15 0 0 26.41 5.93 0 35.07 0 0 3.8 0 0 17.38 5.81 0 34.47 0 0 1.77 0
0 0 0 -0.39 29.96 0.68 17.25 12.36 -14.28 -14.99 -0.41 1.54 0 0 17.88 0 28.65 -7.83 0 22.08 0 0 1.19 0 0 40.08 0.88 0 28.33 0 0 4.8 0 0 36.36 2.4 0 31.44 0 0 2.57 0 0 25.81 3.65 0 30.41 0 0 0.02 0
0 0 0 0.13 18.75 -0.37 -4.97 -4.1 -10.89 -14.83 -2.27 8.51 0 0 15.85 0 42.79 -2.83 0 39.07 0 0 6.21 0 0 58.71 0.42 0 33.74 0 0 6.01 0 0 56.34 -0.01 0 34.82 0 0 3.44 0 0 39.64 1.14 0 33.1 0 0 0 0
0 0 0 0.06 6.5 -0.55 23.43 21.77 -5.3 -12.71 -8.04 31.8 0 0 15.58 0 23.46 -10.83 0 21.96 0 0 3.62 0 0 40.37 7.71 0 49.02 0 0 12.46 0 0 46.74 3.81 0 45.18 0 0 5.84 0 0 37.12 4.12 0 29.42 0 0 2.11 0
0 0 0 0.2 9.14 -1.26 -19.06 -9.04 -37.55 -14.78 -2.56 9.61 0 0 12.42 0 -9.75 -5.42 0 16.47 0 0 1.67 0 0 8.57 4.4 0 23.75 0 0 5.33 0 0 17.89 3.13 0 29.47 0 0 2.87 0 0 22.83 3.1 0 26.65 0 0 0.22 0
0 0 0 1.97 31.89 -3.17 11.46 6.71 -22.1 -14.96 -1.14 4.26 0 0 17.51 0 20.49 -11.73 0 16.8 0 0 0 0 0 28.52 1.09 0 25.83 0 0 4.47 0 0 26.74 2.72 0 30.2 0 0 2.3 0 0 14.37 4.21 0 27.47 0 0 0 0
0 0 0 -0.17 34.3 0.26 -9.16 -6.92 -20.98 -14.93 -1.45 5.4 0 0 16.92 0 -32.14 -12.78 0 4.69 0 0 1.86 0 0 -1.25 1.05 0 24.24 0 0 4.52 0 0 9.47 5.87 0 29.5 0 0 1.95 0 0 10.88 2.9 0 26.69 0 0 0 0
0 0 0 -2.42 33.88 3.61 13.15 8.63 -8.1 -15 0 0 0 0 18.09 0 13.16 -9.31 0 13.43 0 0 0 0 0 20.38 1.04 0 19.03 0 0 2.36 0 0 20.75 4.8 0 24.6 0 0 0.78 0 0 13 4.61 0 22.25 0 0 0 0
0 0 0 0.53 21.29 -1.36 19.56 12.9 -21.16 -14.94 -1.41 5.26 0 0 17.28 0 24.38 -8.47 0 16.8 0 0 0 0 0 42.95 0.71 0 31.78 0 0 6.06 0 0 46.76 1.45 0 36.53 0 0 3.7 0 0 29.19 2.05 0 26.48 0 0 0 0
0 0 0 0.49 20.82 -1.3 17.36 12.35 -18.39 -14.94 -1.33 4.97 0 0 16.84 0 12.44 -7.28 0 11.36 0 0 0 0 0 39.87 1.54 0 31.06 0 0 5.96 0 0 45.71 2.06 0 35.47 0 0 3.55 0 0 30.26 3.04 0 27.45 0 0 0 0
0 0 0 0.51 20.89 -1.34 16.92 11.94 -18.66 -14.95 -1.29 4.82 0 0 16.85 0 13 -7.36 0 11.53 0 0 0 0 0 40.13 1.44 0 30.94 0 0 5.94 0 0 45.86 2.02 0 35.52 0 0 3.57 0 0 30.26 2.99 0 27.47 0 0 0 0
0 0 0 -0.89 11.33 4.46 10.93 11.27 5.71 -14.24 -4.78 18.17 0 0 24.24 0 -23.74 16.57 0 0 0 0 5.99 0 0 46.61 4.97 0 69.94 0 0 14.07 0 0 69.3 -2.22 0 57.83 0 0 8.13 0 0 64.29 -2.22 0 53.9 0 0 14.67 0
0 0 0 0.11 29.62 -0.19 6.84 5.5 -10.14 -14.78 -2.58 9.69 0 0 18.29 0 -2.38 -13.92 0 9.07 0 0 0 0 0 9.13 1.85 0 20.66 0 0 2.31 0 0 13.24 7.79 0 28.21 0 0 1.72 0 0 14.94 7.21 0 26.07 0 0 0 0
0 0 0 0.8 18.33 -2.42 28.56 20.17 -21.55 -14.12 -5.11 19.49 0 0 17.58 0 24.48 -9.79 0 39.68 0 0 6.25 0 0 23.44 0.3 0 27.12 0 0 2.77 0 0 24.25 2.6 0 28.49 0 0 1.35 0 0 23.72 3.11 0 25.12 0 0 0 0
0 0 0 0.1 7.79 -0.69 16.81 7.08 -36.67 -14.97 -0.88 3.27 0 0 11.73 0 -8.44 -13.4 0 18.05 0 0 3.19 0 0 -2.16 3.74 0 19.89 0 0 3.55 0 0 5.89 5.44 0 24.41 0 0 2.72 0 0 24.13 4.79 0 22.44 0 0 0 0
0 0 0 0.79 27.67 -1.51 51.15 22.44 -38.3 -14.83 -2.27 8.52 0 0 33.47 0 31.76 -6.24 0 84.36 0 0 22.91 0 0 46.17 1.2 0 82.39 0 0 32.81 0 0 53.57 0.58 0 78.01 0 0 24.82 0 0 56 0.5 180 89.56 180 0 27.96 0
0 0 0 0.07 12.89 -0.32 6.03 2.89 -28.89 -14.88 -1.91 7.14 0 0 13.86 0 -4.97 -8.72 0 11.88 0 0 2.67 0 0 5.02 0.43 0 8.47 0 0 3.55 0 0 2.59 2.74 0 12.17 0 0 3.97 0 0 15.32 6.63 0 18.93 0 0 0 0
0 0 0 -1.47 25.81 3.04 34.03 19.28 -24.37 -14.73 -2.88 10.84 0 0 18.49 0 -17.94 -17.38 0 22.81 0 0 1.03 0 0 -12.49 2.21 0 14.34 0 0 3.12 0 0 0.38 7.39 0 23.12 0 0 1.39 0 0 13.41 4.16 0 23.4 0 0 0 0
0 0 0 -0.44 4.6 5.48 -19.47 -2.55 -59.2 -14.79 -2.53 9.49 0 0 11.22 0 -23.83 5.65 0 10.68 0 0 4.83 0 0 -17.91 8.46 0 9.83 0 0 4.24 0 0 -10.1 8.27 0 16.49 0 0 2.53 0 0 11.43 -2.56 0 17.87 0 0 0 0
0 0 0 -0.76 6.23 6.98 -19.56 -5.38 -49.08 -14.35 -4.43 16.79 0 0 12.71 0 -11.73 0.72 0 12.38 0 0 2.51 0 0 -5.8 3.18 0 12.81 0 0 3.37 0 0 0.27 4.07 0 20.71 0 0 1.48 0 0 16.45 -2.8 0 19.79 0 0 0 0
0 0 0 2.77 22.01 -6.88 -15.21 -6.81 -42.08 -14.92 -1.57 5.87 0 0 15.64 0 0.7 -12.16 0 10.82 0 0 1.36 0 0 4.28 3.11 0 17.88 0 0 3.32 0 0 24.56 8.63 0 36.5 0 0 2.27 0 0 17.88 6.15 0 28.62 0 0 0 0
0 0 0 -0.86 4.17 11.95 0.84 -0.08 -8.77 -13.4 -6.8 26.42 0 0 11.47 0 -13.08 -1.15 0 7.4 0 0 2.81 0 0 -8.78 3.23 0 3.94 0 0 4.49 0 0 -9.46 2.47 0 9.68 0 0 4.25 0 0 4.49 1.46 0 15.57 0 0 1.4 0
